<mxfile host="app.diagrams.net" modified="2023-09-19T15:57:18.147Z" agent="Mozilla/5.0 (Windows NT 10.0; Win64; x64) AppleWebKit/537.36 (KHTML, like Gecko) Chrome/116.0.0.0 Safari/537.36" etag="oCcgeS4auxGZZ-iD5brT" version="21.7.5" type="github">
  <diagram name="PÃ¡gina-1" id="bYkdZA5IKxDF0_UbWhjp">
    <mxGraphModel dx="1502" dy="576" grid="1" gridSize="10" guides="1" tooltips="1" connect="1" arrows="1" fold="1" page="1" pageScale="1" pageWidth="1400" pageHeight="430" math="0" shadow="0">
      <root>
        <mxCell id="0" />
        <mxCell id="1" parent="0" />
        <mxCell id="m4ihyQc5qIMu2HEEbeQ0-1" value="&lt;font style=&quot;vertical-align: inherit;&quot;&gt;&lt;font style=&quot;vertical-align: inherit;&quot;&gt;&lt;font style=&quot;vertical-align: inherit;&quot;&gt;&lt;font style=&quot;vertical-align: inherit;&quot;&gt;Validar diagnostico principal en los archivos rips&lt;/font&gt;&lt;/font&gt;&lt;/font&gt;&lt;/font&gt;" style="swimlane;childLayout=stackLayout;resizeParent=1;resizeParentMax=0;horizontal=1;startSize=20;horizontalStack=0;html=1;" parent="1" vertex="1">
          <mxGeometry x="25" y="10" width="1330" height="370" as="geometry" />
        </mxCell>
        <mxCell id="m4ihyQc5qIMu2HEEbeQ0-2" value="&lt;font style=&quot;vertical-align: inherit;&quot;&gt;&lt;font style=&quot;vertical-align: inherit;&quot;&gt;Rechazar cargue de rips&lt;/font&gt;&lt;/font&gt;" style="swimlane;startSize=20;horizontal=0;html=1;" parent="m4ihyQc5qIMu2HEEbeQ0-1" vertex="1">
          <mxGeometry y="20" width="1330" height="350" as="geometry" />
        </mxCell>
        <mxCell id="m4ihyQc5qIMu2HEEbeQ0-3" value="" style="points=[[0.145,0.145,0],[0.5,0,0],[0.855,0.145,0],[1,0.5,0],[0.855,0.855,0],[0.5,1,0],[0.145,0.855,0],[0,0.5,0]];shape=mxgraph.bpmn.event;html=1;verticalLabelPosition=bottom;labelBackgroundColor=#ffffff;verticalAlign=top;align=center;perimeter=ellipsePerimeter;outlineConnect=0;aspect=fixed;outline=standard;symbol=general;fillColor=#d1f58f;strokeColor=#74c059;strokeWidth=2;" parent="m4ihyQc5qIMu2HEEbeQ0-2" vertex="1">
          <mxGeometry x="30" y="80" width="50" height="50" as="geometry" />
        </mxCell>
        <mxCell id="m4ihyQc5qIMu2HEEbeQ0-4" style="edgeStyle=orthogonalEdgeStyle;rounded=0;orthogonalLoop=1;jettySize=auto;html=1;entryX=0;entryY=0.5;entryDx=0;entryDy=0;entryPerimeter=0;" parent="m4ihyQc5qIMu2HEEbeQ0-2" source="m4ihyQc5qIMu2HEEbeQ0-3" target="m4ihyQc5qIMu2HEEbeQ0-6" edge="1">
          <mxGeometry relative="1" as="geometry">
            <mxPoint x="110" y="105" as="targetPoint" />
          </mxGeometry>
        </mxCell>
        <mxCell id="m4ihyQc5qIMu2HEEbeQ0-5" style="edgeStyle=orthogonalEdgeStyle;rounded=0;orthogonalLoop=1;jettySize=auto;html=1;fontFamily=Helvetica;fontSize=12;fontColor=default;entryX=0;entryY=0.5;entryDx=0;entryDy=0;entryPerimeter=0;" parent="m4ihyQc5qIMu2HEEbeQ0-2" source="m4ihyQc5qIMu2HEEbeQ0-6" target="m4ihyQc5qIMu2HEEbeQ0-10" edge="1">
          <mxGeometry relative="1" as="geometry" />
        </mxCell>
        <mxCell id="m4ihyQc5qIMu2HEEbeQ0-6" value="&lt;font style=&quot;vertical-align: inherit;&quot;&gt;&lt;font style=&quot;vertical-align: inherit;&quot;&gt;Ingresar a OASIS modulo erip&lt;/font&gt;&lt;/font&gt;" style="points=[[0.25,0,0],[0.5,0,0],[0.75,0,0],[1,0.25,0],[1,0.5,0],[1,0.75,0],[0.75,1,0],[0.5,1,0],[0.25,1,0],[0,0.75,0],[0,0.5,0],[0,0.25,0]];shape=mxgraph.bpmn.task;whiteSpace=wrap;rectStyle=rounded;size=10;html=1;container=1;expand=0;collapsible=0;taskMarker=user;fillColor=#dae8fc;strokeColor=#6c8ebf;strokeWidth=2;" parent="m4ihyQc5qIMu2HEEbeQ0-2" vertex="1">
          <mxGeometry x="115" y="65" width="120" height="80" as="geometry" />
        </mxCell>
        <mxCell id="n8jzDd8uqkkyckHzwkxM-4" value="No" style="edgeStyle=orthogonalEdgeStyle;rounded=0;orthogonalLoop=1;jettySize=auto;html=1;" edge="1" parent="m4ihyQc5qIMu2HEEbeQ0-2" source="m4ihyQc5qIMu2HEEbeQ0-7" target="m4ihyQc5qIMu2HEEbeQ0-14">
          <mxGeometry relative="1" as="geometry" />
        </mxCell>
        <mxCell id="n8jzDd8uqkkyckHzwkxM-5" value="Si" style="edgeStyle=orthogonalEdgeStyle;rounded=0;orthogonalLoop=1;jettySize=auto;html=1;entryX=0;entryY=0.5;entryDx=0;entryDy=0;entryPerimeter=0;" edge="1" parent="m4ihyQc5qIMu2HEEbeQ0-2" source="m4ihyQc5qIMu2HEEbeQ0-7" target="n8jzDd8uqkkyckHzwkxM-6">
          <mxGeometry relative="1" as="geometry">
            <mxPoint x="650" y="270" as="targetPoint" />
            <Array as="points">
              <mxPoint x="650" y="260" />
            </Array>
          </mxGeometry>
        </mxCell>
        <mxCell id="m4ihyQc5qIMu2HEEbeQ0-7" value="Diagnostico principal&lt;br&gt;se encuentra en el&lt;br&gt;CIE10?" style="points=[[0.25,0.25,0],[0.5,0,0],[0.75,0.25,0],[1,0.5,0],[0.75,0.75,0],[0.5,1,0],[0.25,0.75,0],[0,0.5,0]];shape=mxgraph.bpmn.gateway2;html=1;verticalLabelPosition=bottom;labelBackgroundColor=#ffffff;verticalAlign=top;align=center;perimeter=rhombusPerimeter;outlineConnect=0;outline=none;symbol=none;strokeColor=#74c059;fontFamily=Helvetica;fontSize=12;fontColor=default;fillColor=#d1f58f;strokeWidth=2;" parent="m4ihyQc5qIMu2HEEbeQ0-2" vertex="1">
          <mxGeometry x="625" y="80" width="50" height="50" as="geometry" />
        </mxCell>
        <mxCell id="n8jzDd8uqkkyckHzwkxM-3" style="edgeStyle=orthogonalEdgeStyle;rounded=0;orthogonalLoop=1;jettySize=auto;html=1;entryX=0;entryY=0.5;entryDx=0;entryDy=0;entryPerimeter=0;" edge="1" parent="m4ihyQc5qIMu2HEEbeQ0-2" source="m4ihyQc5qIMu2HEEbeQ0-12" target="m4ihyQc5qIMu2HEEbeQ0-7">
          <mxGeometry relative="1" as="geometry" />
        </mxCell>
        <mxCell id="m4ihyQc5qIMu2HEEbeQ0-12" value="&lt;font style=&quot;vertical-align: inherit;&quot;&gt;&lt;font style=&quot;vertical-align: inherit;&quot;&gt;&lt;font style=&quot;vertical-align: inherit;&quot;&gt;&lt;font style=&quot;vertical-align: inherit;&quot;&gt;&lt;font style=&quot;vertical-align: inherit;&quot;&gt;&lt;font style=&quot;vertical-align: inherit;&quot;&gt;Verificar que el diagnostico reportado en los RIPS se encuentre en la tabla de CIE10&lt;/font&gt;&lt;/font&gt;&lt;/font&gt;&lt;/font&gt;&lt;/font&gt;&lt;/font&gt;" style="points=[[0.25,0,0],[0.5,0,0],[0.75,0,0],[1,0.25,0],[1,0.5,0],[1,0.75,0],[0.75,1,0],[0.5,1,0],[0.25,1,0],[0,0.75,0],[0,0.5,0],[0,0.25,0]];shape=mxgraph.bpmn.task;whiteSpace=wrap;rectStyle=rounded;size=10;html=1;container=1;expand=0;collapsible=0;taskMarker=abstract;labelBackgroundColor=none;strokeColor=#6c8ebf;fontFamily=Helvetica;fontSize=12;fontColor=default;fillColor=#dae8fc;strokeWidth=2;" parent="m4ihyQc5qIMu2HEEbeQ0-2" vertex="1">
          <mxGeometry x="455" y="65" width="120" height="80" as="geometry" />
        </mxCell>
        <mxCell id="m4ihyQc5qIMu2HEEbeQ0-14" value="Rechazar los archivos RIPS" style="points=[[0.25,0,0],[0.5,0,0],[0.75,0,0],[1,0.25,0],[1,0.5,0],[1,0.75,0],[0.75,1,0],[0.5,1,0],[0.25,1,0],[0,0.75,0],[0,0.5,0],[0,0.25,0]];shape=mxgraph.bpmn.task;whiteSpace=wrap;rectStyle=rounded;size=10;html=1;container=1;expand=0;collapsible=0;taskMarker=abstract;labelBackgroundColor=none;strokeColor=#6c8ebf;fontFamily=Helvetica;fontSize=12;fontColor=default;fillColor=#dae8fc;strokeWidth=2;" parent="m4ihyQc5qIMu2HEEbeQ0-2" vertex="1">
          <mxGeometry x="735" y="65" width="120" height="80" as="geometry" />
        </mxCell>
        <mxCell id="m4ihyQc5qIMu2HEEbeQ0-16" value="Generar PDF con el informe de errores" style="points=[[0.25,0,0],[0.5,0,0],[0.75,0,0],[1,0.25,0],[1,0.5,0],[1,0.75,0],[0.75,1,0],[0.5,1,0],[0.25,1,0],[0,0.75,0],[0,0.5,0],[0,0.25,0]];shape=mxgraph.bpmn.task;whiteSpace=wrap;rectStyle=rounded;size=10;html=1;container=1;expand=0;collapsible=0;taskMarker=abstract;labelBackgroundColor=none;strokeColor=#6c8ebf;fontFamily=Helvetica;fontSize=12;fontColor=default;fillColor=#dae8fc;strokeWidth=2;" parent="m4ihyQc5qIMu2HEEbeQ0-2" vertex="1">
          <mxGeometry x="895" y="65" width="120" height="80" as="geometry" />
        </mxCell>
        <mxCell id="m4ihyQc5qIMu2HEEbeQ0-13" style="edgeStyle=orthogonalEdgeStyle;rounded=0;orthogonalLoop=1;jettySize=auto;html=1;fontFamily=Helvetica;fontSize=12;fontColor=default;" parent="m4ihyQc5qIMu2HEEbeQ0-2" source="m4ihyQc5qIMu2HEEbeQ0-14" target="m4ihyQc5qIMu2HEEbeQ0-16" edge="1">
          <mxGeometry relative="1" as="geometry" />
        </mxCell>
        <mxCell id="m4ihyQc5qIMu2HEEbeQ0-15" style="edgeStyle=orthogonalEdgeStyle;rounded=0;orthogonalLoop=1;jettySize=auto;html=1;fontFamily=Helvetica;fontSize=12;fontColor=default;" parent="m4ihyQc5qIMu2HEEbeQ0-2" source="m4ihyQc5qIMu2HEEbeQ0-16" target="m4ihyQc5qIMu2HEEbeQ0-20" edge="1">
          <mxGeometry relative="1" as="geometry">
            <mxPoint x="1055" y="105" as="targetPoint" />
          </mxGeometry>
        </mxCell>
        <mxCell id="m4ihyQc5qIMu2HEEbeQ0-20" value="Registrar mensaje que indica el resultado del proceso de diagnostico" style="points=[[0.25,0,0],[0.5,0,0],[0.75,0,0],[1,0.25,0],[1,0.5,0],[1,0.75,0],[0.75,1,0],[0.5,1,0],[0.25,1,0],[0,0.75,0],[0,0.5,0],[0,0.25,0]];shape=mxgraph.bpmn.task;whiteSpace=wrap;rectStyle=rounded;size=10;html=1;container=1;expand=0;collapsible=0;taskMarker=abstract;labelBackgroundColor=none;strokeColor=#6c8ebf;fontFamily=Helvetica;fontSize=12;fontColor=default;fillColor=#dae8fc;strokeWidth=2;" parent="m4ihyQc5qIMu2HEEbeQ0-2" vertex="1">
          <mxGeometry x="1065" y="65" width="120" height="80" as="geometry" />
        </mxCell>
        <mxCell id="m4ihyQc5qIMu2HEEbeQ0-21" style="edgeStyle=orthogonalEdgeStyle;rounded=0;orthogonalLoop=1;jettySize=auto;html=1;fontFamily=Helvetica;fontSize=12;fontColor=default;dashed=1;entryX=0.5;entryY=0;entryDx=0;entryDy=0;exitX=0.5;exitY=1;exitDx=0;exitDy=0;exitPerimeter=0;" parent="m4ihyQc5qIMu2HEEbeQ0-2" source="m4ihyQc5qIMu2HEEbeQ0-20" target="m4ihyQc5qIMu2HEEbeQ0-23" edge="1">
          <mxGeometry relative="1" as="geometry">
            <mxPoint x="1340" y="185" as="targetPoint" />
            <mxPoint x="1295" y="105" as="sourcePoint" />
          </mxGeometry>
        </mxCell>
        <mxCell id="m4ihyQc5qIMu2HEEbeQ0-23" value="&lt;font style=&quot;font-size: 10px;&quot;&gt;&quot;Los diagnÃ³sticos reportados no se encuentran en la tabla de referencia normativa de cÃ³digos CIE10.â &lt;/font&gt;" style="text;html=1;strokeColor=none;fillColor=none;align=center;verticalAlign=middle;whiteSpace=wrap;rounded=0;fontSize=12;fontFamily=Helvetica;fontColor=default;" parent="m4ihyQc5qIMu2HEEbeQ0-2" vertex="1">
          <mxGeometry x="1052.5" y="180" width="145" height="60" as="geometry" />
        </mxCell>
        <mxCell id="n8jzDd8uqkkyckHzwkxM-2" style="edgeStyle=orthogonalEdgeStyle;rounded=0;orthogonalLoop=1;jettySize=auto;html=1;entryX=0;entryY=0.5;entryDx=0;entryDy=0;entryPerimeter=0;" edge="1" parent="m4ihyQc5qIMu2HEEbeQ0-2" source="m4ihyQc5qIMu2HEEbeQ0-10" target="m4ihyQc5qIMu2HEEbeQ0-12">
          <mxGeometry relative="1" as="geometry" />
        </mxCell>
        <mxCell id="m4ihyQc5qIMu2HEEbeQ0-10" value="&lt;font style=&quot;vertical-align: inherit;&quot;&gt;&lt;font style=&quot;vertical-align: inherit;&quot;&gt;Cargar archivos rips opciÃ³n PRIMERA VEZ&lt;/font&gt;&lt;/font&gt;" style="points=[[0.25,0,0],[0.5,0,0],[0.75,0,0],[1,0.25,0],[1,0.5,0],[1,0.75,0],[0.75,1,0],[0.5,1,0],[0.25,1,0],[0,0.75,0],[0,0.5,0],[0,0.25,0]];shape=mxgraph.bpmn.task;whiteSpace=wrap;rectStyle=rounded;size=10;html=1;container=1;expand=0;collapsible=0;taskMarker=abstract;labelBackgroundColor=none;strokeColor=#6c8ebf;fontFamily=Helvetica;fontSize=12;fontColor=default;fillColor=#dae8fc;strokeWidth=2;" parent="m4ihyQc5qIMu2HEEbeQ0-2" vertex="1">
          <mxGeometry x="285" y="65" width="120" height="80" as="geometry" />
        </mxCell>
        <mxCell id="n8jzDd8uqkkyckHzwkxM-8" style="edgeStyle=orthogonalEdgeStyle;rounded=0;orthogonalLoop=1;jettySize=auto;html=1;" edge="1" parent="m4ihyQc5qIMu2HEEbeQ0-2" source="n8jzDd8uqkkyckHzwkxM-6" target="n8jzDd8uqkkyckHzwkxM-7">
          <mxGeometry relative="1" as="geometry" />
        </mxCell>
        <mxCell id="n8jzDd8uqkkyckHzwkxM-6" value="Continuar con el proceso de validaciÃ³n de RIPS" style="points=[[0.25,0,0],[0.5,0,0],[0.75,0,0],[1,0.25,0],[1,0.5,0],[1,0.75,0],[0.75,1,0],[0.5,1,0],[0.25,1,0],[0,0.75,0],[0,0.5,0],[0,0.25,0]];shape=mxgraph.bpmn.task;whiteSpace=wrap;rectStyle=rounded;size=10;html=1;container=1;expand=0;collapsible=0;taskMarker=abstract;labelBackgroundColor=none;strokeColor=#6c8ebf;fontFamily=Helvetica;fontSize=12;fontColor=default;fillColor=#dae8fc;strokeWidth=2;" vertex="1" parent="m4ihyQc5qIMu2HEEbeQ0-2">
          <mxGeometry x="735" y="220" width="120" height="80" as="geometry" />
        </mxCell>
        <mxCell id="n8jzDd8uqkkyckHzwkxM-7" value="" style="points=[[0.145,0.145,0],[0.5,0,0],[0.855,0.145,0],[1,0.5,0],[0.855,0.855,0],[0.5,1,0],[0.145,0.855,0],[0,0.5,0]];shape=mxgraph.bpmn.event;html=1;verticalLabelPosition=bottom;labelBackgroundColor=#ffffff;verticalAlign=top;align=center;perimeter=ellipsePerimeter;outlineConnect=0;aspect=fixed;outline=end;symbol=terminate2;fillColor=#f8cecc;strokeColor=#b85450;" vertex="1" parent="m4ihyQc5qIMu2HEEbeQ0-2">
          <mxGeometry x="895" y="235" width="50" height="50" as="geometry" />
        </mxCell>
        <mxCell id="n8jzDd8uqkkyckHzwkxM-9" value="" style="points=[[0.145,0.145,0],[0.5,0,0],[0.855,0.145,0],[1,0.5,0],[0.855,0.855,0],[0.5,1,0],[0.145,0.855,0],[0,0.5,0]];shape=mxgraph.bpmn.event;html=1;verticalLabelPosition=bottom;labelBackgroundColor=#ffffff;verticalAlign=top;align=center;perimeter=ellipsePerimeter;outlineConnect=0;aspect=fixed;outline=end;symbol=terminate;fillColor=#f8cecc;strokeColor=#b85450;" vertex="1" parent="m4ihyQc5qIMu2HEEbeQ0-2">
          <mxGeometry x="1235" y="80" width="50" height="50" as="geometry" />
        </mxCell>
        <mxCell id="m4ihyQc5qIMu2HEEbeQ0-19" style="edgeStyle=orthogonalEdgeStyle;rounded=0;orthogonalLoop=1;jettySize=auto;html=1;fontFamily=Helvetica;fontSize=12;fontColor=default;entryX=0;entryY=0.5;entryDx=0;entryDy=0;entryPerimeter=0;" parent="m4ihyQc5qIMu2HEEbeQ0-2" source="m4ihyQc5qIMu2HEEbeQ0-20" target="n8jzDd8uqkkyckHzwkxM-9" edge="1">
          <mxGeometry relative="1" as="geometry">
            <mxPoint x="1245" y="105" as="targetPoint" />
          </mxGeometry>
        </mxCell>
      </root>
    </mxGraphModel>
  </diagram>
</mxfile>
